<?xml version="1.0" encoding="UTF-8"?>
<svg width="91" height="91" version="1.1" viewBox="0 0 91 91" xmlns="http://www.w3.org/2000/svg" xmlns:cc="http://creativecommons.org/ns#" xmlns:dc="http://purl.org/dc/elements/1.1/" xmlns:rdf="http://www.w3.org/1999/02/22-rdf-syntax-ns#">
 <title>USAR_Hazards_Fire</title>
 <defs>
  <style type="text/css">.str0 {stroke:#D9DADA;stroke-width:0.749401}
    .str1 {stroke:#231F20;stroke-width:0.749401}
    .fil0 {fill:none}
    .fil2 {fill:#231F20}
    .fil1 {fill:#ED1C24}</style>
  <style type="text/css">.str0 {stroke:#D9DADA;stroke-width:0.749401}
    .str1 {stroke:#231F20;stroke-width:0.749401}
    .fil0 {fill:none}
    .fil2 {fill:#231F20}
    .fil1 {fill:#ED1C24}</style>
  <style type="text/css">.str0 {stroke:#D9DADA;stroke-width:0.749401}
    .str1 {stroke:#231F20;stroke-width:0.749401}
    .fil0 {fill:none}
    .fil2 {fill:#231F20}
    .fil1 {fill:#ED1C24}</style>
  <style type="text/css">.str0 {stroke:#D9DADA;stroke-width:0.749401}
    .str1 {stroke:#231F20;stroke-width:0.749401}
    .fil0 {fill:none}
    .fil2 {fill:#231F20}
    .fil1 {fill:#ED1C24}</style>
  <style type="text/css">.str0 {stroke:#D9DADA;stroke-width:0.749401}
    .str1 {stroke:#231F20;stroke-width:0.749401}
    .fil0 {fill:none}
    .fil2 {fill:#231F20}
    .fil1 {fill:#ED1C24}</style>
  <style type="text/css">.str0 {stroke:#D9DADA;stroke-width:0.749401}
    .str1 {stroke:#231F20;stroke-width:0.749401}
    .fil0 {fill:none}
    .fil2 {fill:#231F20}
    .fil1 {fill:#ED1C24}</style>
  <style type="text/css">.str0 {stroke:#D9DADA;stroke-width:0.749401}
    .str1 {stroke:#231F20;stroke-width:0.749401}
    .fil0 {fill:none}
    .fil2 {fill:#231F20}
    .fil1 {fill:#ED1C24}</style>
  <style type="text/css">.str0 {stroke:#D9DADA;stroke-width:0.749401}
    .str1 {stroke:#231F20;stroke-width:0.749401}
    .fil0 {fill:none}
    .fil2 {fill:#231F20}
    .fil1 {fill:#ED1C24}</style>
  <style type="text/css">.str0 {stroke:#D9DADA;stroke-width:0.749401}
    .str1 {stroke:#231F20;stroke-width:0.749401}
    .fil0 {fill:none}
    .fil2 {fill:#231F20}
    .fil1 {fill:#ED1C24}</style>
  <style type="text/css">.str0 {stroke:#D9DADA;stroke-width:0.749401}
    .str1 {stroke:#231F20;stroke-width:0.749401}
    .fil0 {fill:none}
    .fil2 {fill:#231F20}
    .fil1 {fill:#ED1C24}</style>
  <style type="text/css">.str0 {stroke:#D9DADA;stroke-width:0.749401}
    .str1 {stroke:#231F20;stroke-width:0.749401}
    .fil0 {fill:none}
    .fil2 {fill:#231F20}
    .fil1 {fill:#ED1C24}</style>
  <style type="text/css">.str0 {stroke:#D9DADA;stroke-width:0.749401}
    .str1 {stroke:#231F20;stroke-width:0.749401}
    .fil0 {fill:none}
    .fil2 {fill:#231F20}
    .fil1 {fill:#ED1C24}</style>
  <style type="text/css">.str0 {stroke:#D9DADA;stroke-width:0.749401}
    .str1 {stroke:#231F20;stroke-width:0.749401}
    .fil0 {fill:none}
    .fil2 {fill:#231F20}
    .fil1 {fill:#ED1C24}</style>
  <style type="text/css">.str0 {stroke:#D9DADA;stroke-width:0.749401}
    .str1 {stroke:#231F20;stroke-width:0.749401}
    .fil0 {fill:none}
    .fil2 {fill:#231F20}
    .fil1 {fill:#ED1C24}</style>
  <style type="text/css">.str0 {stroke:#D9DADA;stroke-width:0.749401}
    .str1 {stroke:#231F20;stroke-width:0.749401}
    .fil0 {fill:none}
    .fil2 {fill:#231F20}
    .fil1 {fill:#ED1C24}</style>
  <style type="text/css">.str0 {stroke:#D9DADA;stroke-width:0.749401}
    .str1 {stroke:#231F20;stroke-width:0.749401}
    .fil0 {fill:none}
    .fil2 {fill:#231F20}
    .fil1 {fill:#ED1C24}</style>
  <style type="text/css">.str0 {stroke:#D9DADA;stroke-width:0.749401}
    .str1 {stroke:#231F20;stroke-width:0.749401}
    .fil0 {fill:none}
    .fil2 {fill:#231F20}
    .fil1 {fill:#ED1C24}</style>
  <style type="text/css">.str0 {stroke:#D9DADA;stroke-width:0.749401}
    .str1 {stroke:#231F20;stroke-width:0.749401}
    .fil0 {fill:none}
    .fil2 {fill:#231F20}
    .fil1 {fill:#ED1C24}</style>
  <style type="text/css">.str0 {stroke:#D9DADA;stroke-width:0.749401}
    .str1 {stroke:#231F20;stroke-width:0.749401}
    .fil0 {fill:none}
    .fil2 {fill:#231F20}
    .fil1 {fill:#ED1C24}</style>
  <style type="text/css">.str0 {stroke:#D9DADA;stroke-width:0.749401}
    .str1 {stroke:#231F20;stroke-width:0.749401}
    .fil0 {fill:none}
    .fil2 {fill:#231F20}
    .fil1 {fill:#ED1C24}</style>
  <style type="text/css">.str0 {stroke:#D9DADA;stroke-width:0.749401}
    .str1 {stroke:#231F20;stroke-width:0.749401}
    .fil0 {fill:none}
    .fil2 {fill:#231F20}
    .fil1 {fill:#ED1C24}</style>
  <style type="text/css">.str0 {stroke:#D9DADA;stroke-width:0.749401}
    .str1 {stroke:#231F20;stroke-width:0.749401}
    .fil0 {fill:none}
    .fil2 {fill:#231F20}
    .fil1 {fill:#ED1C24}</style>
  <style type="text/css">.str0 {stroke:#D9DADA;stroke-width:0.749401}
    .str1 {stroke:#231F20;stroke-width:0.749401}
    .fil0 {fill:none}
    .fil2 {fill:#231F20}
    .fil1 {fill:#ED1C24}</style>
  <style type="text/css">.str0 {stroke:#D9DADA;stroke-width:0.749401}
    .str1 {stroke:#231F20;stroke-width:0.749401}
    .fil0 {fill:none}
    .fil2 {fill:#231F20}
    .fil1 {fill:#ED1C24}</style>
  <style type="text/css">.str0 {stroke:#D9DADA;stroke-width:0.749401}
    .str1 {stroke:#231F20;stroke-width:0.749401}
    .fil0 {fill:none}
    .fil2 {fill:#231F20}
    .fil1 {fill:#ED1C24}</style>
  <style type="text/css">.str0 {stroke:#D9DADA;stroke-width:0.749401}
    .str1 {stroke:#231F20;stroke-width:0.749401}
    .fil0 {fill:none}
    .fil2 {fill:#231F20}
    .fil1 {fill:#ED1C24}</style>
  <style type="text/css">.str0 {stroke:#D9DADA;stroke-width:0.749401}
    .str1 {stroke:#231F20;stroke-width:0.749401}
    .fil0 {fill:none}
    .fil2 {fill:#231F20}
    .fil1 {fill:#ED1C24}</style>
  <style type="text/css">.str0 {stroke:#D9DADA;stroke-width:0.749401}
    .str1 {stroke:#231F20;stroke-width:0.749401}
    .fil0 {fill:none}
    .fil2 {fill:#231F20}
    .fil1 {fill:#ED1C24}</style>
  <style type="text/css">.str0 {stroke:#D9DADA;stroke-width:0.749401}
    .str1 {stroke:#231F20;stroke-width:0.749401}
    .fil0 {fill:none}
    .fil2 {fill:#231F20}
    .fil1 {fill:#ED1C24}</style>
  <style type="text/css">.str0 {stroke:#D9DADA;stroke-width:0.749401}
    .str1 {stroke:#231F20;stroke-width:0.749401}
    .fil0 {fill:none}
    .fil2 {fill:#231F20}
    .fil1 {fill:#ED1C24}</style>
  <style type="text/css">.str0 {stroke:#D9DADA;stroke-width:0.749401}
    .str1 {stroke:#231F20;stroke-width:0.749401}
    .fil0 {fill:none}
    .fil2 {fill:#231F20}
    .fil1 {fill:#ED1C24}</style>
  <style type="text/css">.str0 {stroke:#D9DADA;stroke-width:0.749401}
    .str1 {stroke:#231F20;stroke-width:0.749401}
    .fil0 {fill:none}
    .fil2 {fill:#231F20}
    .fil1 {fill:#ED1C24}</style>
 </defs>
 <metadata>
  <rdf:RDF>
   <cc:Work rdf:about="">
    <dc:format>image/svg+xml</dc:format>
    <dc:type rdf:resource="http://purl.org/dc/dcmitype/StillImage"/>
    <dc:title>USAR_Hazards_Fire</dc:title>
   </cc:Work>
  </rdf:RDF>
 </metadata>
 <g transform="translate(-18.723 -942.94)">
  <path d="m19.223 988.52 45.004-45.009 44.996 44.968-44.997 44.882z" fill="#fff8f5" stroke-width="0"/>
 </g>
 <g transform="translate(-18.723 -18.578)">
  <path d="m56.721 88.836c-2.8252-0.70883-5.457-2.1751-6.6773-3.7201-0.49136-0.62206-1.3211-2.3236-1.8439-3.7811-0.5228-1.4576-1.119-3.0838-1.325-3.6138-0.20598-0.53004-0.89531-2.8067-1.5319-5.0593-1.3876-4.91-2.9563-8.8329-4.3833-10.962-0.96399-1.4381-0.98435-1.5698-0.24911-1.6127 2.3613-0.13768 4.2373 0.22736 5.5107 1.0723l1.4261 0.94622 0.68081-1.0931c0.80116-1.2864 0.88196-3.4105 0.18539-4.8743-0.2725-0.57261-0.63569-1.7405-0.80712-2.5952-0.30736-1.5327-0.2932-1.5501 1.031-1.2676 0.7385 0.15756 2.1909 0.92056 3.2276 1.6955 1.4695 1.0984 1.9639 1.2691 2.2428 0.7744 0.53662-0.95173 0.44941-11.856-0.10414-13.02-0.45847-0.96342-0.39577-0.98979 1.7934-0.75322 1.9718 0.21309 2.4315 0.47375 3.5156 1.9934 0.6859 0.96154 1.4213 1.6272 1.6342 1.4792 0.21289-0.14798 0.4014-1.6114 0.41887-3.2521 0.01761-1.6407 0.16393-3.9588 0.32551-5.1513l0.2938-2.1683 1.8066 2.6788c2.1085 3.1265 4.2142 8.1176 4.8654 11.532 0.75766 3.9731 1.3074 3.6435 1.8854-1.1303l0.28306-2.338 1.0456 1.1047c1.3798 1.4578 3.6017 6.508 3.6017 8.1864 0 1.7667 0.40046 2.8535 1.0514 2.8535 1.0106 0 2.3977-1.8267 3.0685-4.0409 0.37043-1.2227 0.94069-2.2231 1.2672-2.2231 0.95779 0 2.462 3.8495 2.3871 6.1088-0.03682 1.1073-0.44358 3.3746-0.90406 5.0386-0.46054 1.664-0.76651 3.1051-0.68 3.2024 0.08651 0.09728 1.1982-1.0318 2.4705-2.509 2.8755-3.3387 3.7643-3.4848 3.7643-0.61882 0 3.5771-1.1341 7.179-3.9799 12.64-1.5159 2.9089-3.3131 6.4803-3.9939 7.9363-1.3967 2.9872-4.1686 5.204-8.1243 6.4972-2.7296 0.89239-11.692 0.91789-15.178 0.04339z" fill-rule="evenodd"/>
  <g transform="translate(0 -924.36)">
   <path d="m22.692 988.49 41.395-41.502 41.369 41.439-41.367 41.421z" fill="none" stroke="#0f1600" stroke-linecap="round" stroke-width="4.1923"/>
  </g>
 </g>
</svg>
