<?xml version="1.0" encoding="UTF-8"?>
<svg width="91" height="91" version="1.1" viewBox="0 0 91 91" xmlns="http://www.w3.org/2000/svg" xmlns:cc="http://creativecommons.org/ns#" xmlns:dc="http://purl.org/dc/elements/1.1/" xmlns:rdf="http://www.w3.org/1999/02/22-rdf-syntax-ns#">
 <title>USAR_HumanInteraction_ShelterInPlace</title>
 <defs>
  <style type="text/css">.str0 {stroke:#D9DADA;stroke-width:0.749401}
    .str1 {stroke:#231F20;stroke-width:0.749401}
    .fil0 {fill:none}
    .fil2 {fill:#231F20}
    .fil1 {fill:#ED1C24}</style>
  <style type="text/css">.str0 {stroke:#D9DADA;stroke-width:0.749401}
    .str1 {stroke:#231F20;stroke-width:0.749401}
    .fil0 {fill:none}
    .fil2 {fill:#231F20}
    .fil1 {fill:#ED1C24}</style>
  <style type="text/css">.str0 {stroke:#D9DADA;stroke-width:0.749401}
    .str1 {stroke:#231F20;stroke-width:0.749401}
    .fil0 {fill:none}
    .fil2 {fill:#231F20}
    .fil1 {fill:#ED1C24}</style>
  <style type="text/css">.str0 {stroke:#D9DADA;stroke-width:0.749401}
    .str1 {stroke:#231F20;stroke-width:0.749401}
    .fil0 {fill:none}
    .fil2 {fill:#231F20}
    .fil1 {fill:#ED1C24}</style>
  <style type="text/css">.str0 {stroke:#D9DADA;stroke-width:0.749401}
    .str1 {stroke:#231F20;stroke-width:0.749401}
    .fil0 {fill:none}
    .fil2 {fill:#231F20}
    .fil1 {fill:#ED1C24}</style>
  <style type="text/css">.str0 {stroke:#D9DADA;stroke-width:0.749401}
    .str1 {stroke:#231F20;stroke-width:0.749401}
    .fil0 {fill:none}
    .fil2 {fill:#231F20}
    .fil1 {fill:#ED1C24}</style>
  <style type="text/css">.str0 {stroke:#D9DADA;stroke-width:0.749401}
    .str1 {stroke:#231F20;stroke-width:0.749401}
    .fil0 {fill:none}
    .fil2 {fill:#231F20}
    .fil1 {fill:#ED1C24}</style>
  <style type="text/css">.str0 {stroke:#D9DADA;stroke-width:0.749401}
    .str1 {stroke:#231F20;stroke-width:0.749401}
    .fil0 {fill:none}
    .fil2 {fill:#231F20}
    .fil1 {fill:#ED1C24}</style>
  <style type="text/css">.str0 {stroke:#D9DADA;stroke-width:0.749401}
    .str1 {stroke:#231F20;stroke-width:0.749401}
    .fil0 {fill:none}
    .fil2 {fill:#231F20}
    .fil1 {fill:#ED1C24}</style>
  <style type="text/css">.str0 {stroke:#D9DADA;stroke-width:0.749401}
    .str1 {stroke:#231F20;stroke-width:0.749401}
    .fil0 {fill:none}
    .fil2 {fill:#231F20}
    .fil1 {fill:#ED1C24}</style>
  <style type="text/css">.str0 {stroke:#D9DADA;stroke-width:0.749401}
    .str1 {stroke:#231F20;stroke-width:0.749401}
    .fil0 {fill:none}
    .fil2 {fill:#231F20}
    .fil1 {fill:#ED1C24}</style>
  <style type="text/css">.str0 {stroke:#D9DADA;stroke-width:0.749401}
    .str1 {stroke:#231F20;stroke-width:0.749401}
    .fil0 {fill:none}
    .fil2 {fill:#231F20}
    .fil1 {fill:#ED1C24}</style>
  <style type="text/css">.str0 {stroke:#D9DADA;stroke-width:0.749401}
    .str1 {stroke:#231F20;stroke-width:0.749401}
    .fil0 {fill:none}
    .fil2 {fill:#231F20}
    .fil1 {fill:#ED1C24}</style>
  <style type="text/css">.str0 {stroke:#D9DADA;stroke-width:0.749401}
    .str1 {stroke:#231F20;stroke-width:0.749401}
    .fil0 {fill:none}
    .fil2 {fill:#231F20}
    .fil1 {fill:#ED1C24}</style>
  <style type="text/css">.str0 {stroke:#D9DADA;stroke-width:0.749401}
    .str1 {stroke:#231F20;stroke-width:0.749401}
    .fil0 {fill:none}
    .fil2 {fill:#231F20}
    .fil1 {fill:#ED1C24}</style>
  <style type="text/css">.str0 {stroke:#D9DADA;stroke-width:0.749401}
    .str1 {stroke:#231F20;stroke-width:0.749401}
    .fil0 {fill:none}
    .fil2 {fill:#231F20}
    .fil1 {fill:#ED1C24}</style>
  <style type="text/css">.str0 {stroke:#D9DADA;stroke-width:0.749401}
    .str1 {stroke:#231F20;stroke-width:0.749401}
    .fil0 {fill:none}
    .fil2 {fill:#231F20}
    .fil1 {fill:#ED1C24}</style>
  <style type="text/css">.str0 {stroke:#D9DADA;stroke-width:0.749401}
    .str1 {stroke:#231F20;stroke-width:0.749401}
    .fil0 {fill:none}
    .fil2 {fill:#231F20}
    .fil1 {fill:#ED1C24}</style>
  <style type="text/css">.str0 {stroke:#D9DADA;stroke-width:0.749401}
    .str1 {stroke:#231F20;stroke-width:0.749401}
    .fil0 {fill:none}
    .fil2 {fill:#231F20}
    .fil1 {fill:#ED1C24}</style>
  <style type="text/css">.str0 {stroke:#D9DADA;stroke-width:0.749401}
    .str1 {stroke:#231F20;stroke-width:0.749401}
    .fil0 {fill:none}
    .fil2 {fill:#231F20}
    .fil1 {fill:#ED1C24}</style>
  <style type="text/css">.str0 {stroke:#D9DADA;stroke-width:0.749401}
    .str1 {stroke:#231F20;stroke-width:0.749401}
    .fil0 {fill:none}
    .fil2 {fill:#231F20}
    .fil1 {fill:#ED1C24}</style>
  <style type="text/css">.str0 {stroke:#D9DADA;stroke-width:0.749401}
    .str1 {stroke:#231F20;stroke-width:0.749401}
    .fil0 {fill:none}
    .fil2 {fill:#231F20}
    .fil1 {fill:#ED1C24}</style>
  <style type="text/css">.str0 {stroke:#D9DADA;stroke-width:0.749401}
    .str1 {stroke:#231F20;stroke-width:0.749401}
    .fil0 {fill:none}
    .fil2 {fill:#231F20}
    .fil1 {fill:#ED1C24}</style>
  <style type="text/css">.str0 {stroke:#D9DADA;stroke-width:0.749401}
    .str1 {stroke:#231F20;stroke-width:0.749401}
    .fil0 {fill:none}
    .fil2 {fill:#231F20}
    .fil1 {fill:#ED1C24}</style>
  <style type="text/css">.str0 {stroke:#D9DADA;stroke-width:0.749401}
    .str1 {stroke:#231F20;stroke-width:0.749401}
    .fil0 {fill:none}
    .fil2 {fill:#231F20}
    .fil1 {fill:#ED1C24}</style>
  <style type="text/css">.str0 {stroke:#D9DADA;stroke-width:0.749401}
    .str1 {stroke:#231F20;stroke-width:0.749401}
    .fil0 {fill:none}
    .fil2 {fill:#231F20}
    .fil1 {fill:#ED1C24}</style>
  <style type="text/css">.str0 {stroke:#D9DADA;stroke-width:0.749401}
    .str1 {stroke:#231F20;stroke-width:0.749401}
    .fil0 {fill:none}
    .fil2 {fill:#231F20}
    .fil1 {fill:#ED1C24}</style>
  <style type="text/css">.str0 {stroke:#D9DADA;stroke-width:0.749401}
    .str1 {stroke:#231F20;stroke-width:0.749401}
    .fil0 {fill:none}
    .fil2 {fill:#231F20}
    .fil1 {fill:#ED1C24}</style>
  <style type="text/css">.str0 {stroke:#D9DADA;stroke-width:0.749401}
    .str1 {stroke:#231F20;stroke-width:0.749401}
    .fil0 {fill:none}
    .fil2 {fill:#231F20}
    .fil1 {fill:#ED1C24}</style>
  <style type="text/css">.str0 {stroke:#D9DADA;stroke-width:0.749401}
    .str1 {stroke:#231F20;stroke-width:0.749401}
    .fil0 {fill:none}
    .fil2 {fill:#231F20}
    .fil1 {fill:#ED1C24}</style>
  <style type="text/css">.str0 {stroke:#D9DADA;stroke-width:0.749401}
    .str1 {stroke:#231F20;stroke-width:0.749401}
    .fil0 {fill:none}
    .fil2 {fill:#231F20}
    .fil1 {fill:#ED1C24}</style>
  <style type="text/css">.str0 {stroke:#D9DADA;stroke-width:0.749401}
    .str1 {stroke:#231F20;stroke-width:0.749401}
    .fil0 {fill:none}
    .fil2 {fill:#231F20}
    .fil1 {fill:#ED1C24}</style>
 </defs>
 <metadata>
  <rdf:RDF>
   <cc:Work rdf:about="">
    <dc:format>image/svg+xml</dc:format>
    <dc:type rdf:resource="http://purl.org/dc/dcmitype/StillImage"/>
    <dc:title>USAR_HumanInteraction_ShelterInPlace</dc:title>
   </cc:Work>
  </rdf:RDF>
 </metadata>
 <g transform="translate(-18.723 -942.94)">
  <path d="m19.223 988.52 45.004-45.009 44.996 44.968-44.997 44.882z" fill="#fff8f5" stroke-width="0"/>
 </g>
 <g transform="translate(-18.723 -18.578)">
  <g transform="matrix(.23268 0 0 .25387 -6.1314 -25)" stroke="#010000" stroke-width="5.8877">
   <g>
    <path transform="matrix(4.2977 0 0 3.939 106.82 171.65)" d="m51.887 21.438c-4.6199 0.05253-9.2385 0.08075-13.854 0.0293-1.3159-0.01465-2.4405 0.4703-3.3477 1.5703-5.3097 6.437-10.673 12.825-16.014 19.24-0.35315 0.4236-0.58568 0.85082-0.94141 1.377l-0.63281 0.93555 1.041 0.24023c1.4517 0.33479 2.744 0.38169 3.9277-0.0078 1.1837-0.3895 2.2181-1.2163 3.1504-2.4668 3.6096-4.8409 7.595-9.3854 11.398-14.139 0.76587-0.95713 1.3728-1.2361 2.5566-1.2012 4.0199 0.11823 8.0221 0.01426 11.994 0.13867 0.52252 0.01635 1.396 0.44919 1.7441 0.86328 4.176 4.9714 8.3796 9.9044 12.301 15.07 0.94021 1.2388 2.0375 1.777 3.1113 1.9277 1.0738 0.15072 2.1115-0.0123 3.1875-0.02734l1.209-0.01563-0.63281-1.123c-0.32738-0.5805-0.45207-0.95069-0.78516-1.3496-5.4927-6.573-11.012-13.116-16.469-19.715-0.82177-0.9936-1.8394-1.36-2.9453-1.3477zm-7.6523 7.9844c-0.23377 0.09977-0.46462 0.20523-0.70117 0.29883-1.642 0.64929-2.6475 2.2348-2.4043 3.7949 0.26963 1.7298 1.6319 2.9953 3.459 3.2129 1.7117 0.20366 3.43-0.72767 4.1055-2.2266 0.69382-1.5393 0.20934-3.3002-1.252-4.3008-0.48339-0.33069-1.0768-0.5237-1.6191-0.7793zm1.0234 8.4141c-1.6141 7.7e-4 -3.2282 0.02105-4.8418 0.01758-0.28826-7.72e-4 -0.58532 0.06174-0.86524 0.13476-2.3144 0.6048-3.6945 2.4149-3.7129 4.957-0.02613 3.5049-0.0083 7.01-2e-3 10.516 8.33e-4 0.29597 0.04235 0.59681 0.10156 0.88867 0.15733 0.77504 0.70344 1.1637 1.5273 1.2188 0.84865 0.05683 1.4943-0.36359 1.6953-1.125 0.09618-0.36412 0.125-0.75049 0.125-1.127 0.0089-3.2045 0.0039-6.4087 0.0039-9.6621h2e-3c0.96595-0.24892 0.80859 0.33876 0.80859 0.77539 0.0036 9.0224 0.0039 18.044 0.0039 27.066 0 0.32606-0.0038 0.6523 0.02344 0.97656 0.10563 1.2541 0.90381 1.9851 2.1816 2.0137 1.3056 0.02931 2.1931-0.70941 2.3379-1.9609 0.03669-0.32272 0.04102-0.65102 0.04102-0.97656 0.0028-5.0817-8.74e-4 -10.163 2e-3 -15.244 5.56e-4 -0.80049 0.0079-0.80127 0.78125-0.67578v16.041c0 0.2988-0.013 0.59974 0.01758 0.89648 0.11786 1.1541 1.0519 1.9247 2.3086 1.9219 1.272-0.0033 2.1608-0.76507 2.2539-1.9492 0.02557-0.32452 0.01563-0.65271 0.01563-0.97852v-27.893c0.81918-0.23889 0.81836 0.17217 0.81836 0.625-0.0033 3.2063-0.01689 6.4128 0.01758 9.6191 0.0114 1.0744 0.71802 1.7114 1.709 1.6934 0.95261-0.01749 1.6493-0.64834 1.6562-1.6738 0.02474-3.8585 0.06466-7.7193-0.02734-11.576-0.05365-2.2603-1.9297-4.3118-4.1465-4.4219-1.6095-0.07984-3.2218-0.09843-4.8359-0.09766z" color="#000000" color-rendering="auto" dominant-baseline="auto" fill-rule="evenodd" image-rendering="auto" shape-rendering="auto" solid-color="#000000" stop-color="#000000" stroke="none" style="font-feature-settings:normal;font-variant-alternates:normal;font-variant-caps:normal;font-variant-east-asian:normal;font-variant-ligatures:normal;font-variant-numeric:normal;font-variant-position:normal;font-variation-settings:normal;inline-size:0;isolation:auto;mix-blend-mode:normal;shape-margin:0;shape-padding:0;text-decoration-color:#000000;text-decoration-line:none;text-decoration-style:solid;text-indent:0;text-orientation:mixed;text-transform:none;white-space:normal"/>
   </g>
  </g>
  <g transform="translate(0 -924.36)">
   <path d="m22.692 988.49 41.395-41.502 41.369 41.439-41.367 41.421z" fill="none" stroke="#0f1600" stroke-linecap="round" stroke-width="4.1923"/>
  </g>
 </g>
</svg>
